<svg xmlns="http://www.w3.org/2000/svg" viewBox="0 0 54.15 78.22"><defs><style>.cls-1{fill:#2272b5;}.cls-2{fill:#f0f3fa;}</style></defs><g id="Layer_2" data-name="Layer 2"><g id="Layer_1-2" data-name="Layer 1"><polygon class="cls-1" points="54.15 21.06 54.15 0 0 0 0 21.06 12.03 21.06 12.03 57.16 0 57.16 0 78.22 54.15 78.22 54.15 57.16 42.12 57.16 42.12 21.06 54.15 21.06"/><path class="cls-2" d="M42.12,60.17h9v15H3v-15h9a3,3,0,0,0,3-3V21.06a3,3,0,0,0-3-3H3V3H51.14v15h-9a3,3,0,0,0-3,3v36.1a3,3,0,0,0,3,3"/></g></g></svg>