<svg xmlns="http://www.w3.org/2000/svg" xmlns:xlink="http://www.w3.org/1999/xlink" viewBox="0 0 963 543"><defs><style>.cls-1{fill:#f0f3fa;stroke:#2d3e98;stroke-miterlimit:10;stroke-width:3px;}.cls-2{fill:#253959;}.cls-3{fill:#4b7bbe;}.cls-4{fill:url(#linear-gradient);}.cls-5{fill:url(#linear-gradient-2);}</style><linearGradient id="linear-gradient" x1="933.43" y1="259.7" x2="923.7" y2="249.97" gradientTransform="matrix(1.74, 0, 0, -1.74, -1486.09, 697.53)" gradientUnits="userSpaceOnUse"><stop offset="0" stop-color="#325ba9"/><stop offset="1" stop-color="#4b7bbe"/></linearGradient><linearGradient id="linear-gradient-2" x1="940.84" y1="229.89" x2="950.55" y2="239.6" xlink:href="#linear-gradient"/></defs><g id="Layer_2" data-name="Layer 2"><g id="Layer_1-2" data-name="Layer 1"><rect class="cls-1" x="1.5" y="1.5" width="960" height="540" rx="60"/><g id="svg8093"><path id="path7981" class="cls-2" d="M561.15,227.13c-12.44,0-18.49,7.34-18.49,18.13v6.35h-9.43v9.24h9.45V309.7h9.73V260.84h15v-9.23h-15l-.09-6.07c0-5.23,3.08-8.83,9.23-8.83a32.09,32.09,0,0,1,6.27.58V228.1A24.23,24.23,0,0,0,561.15,227.13Zm-291.82,2.16a6.53,6.53,0,0,0-6.28,6.77v.25a7,7,0,0,0,13.94,0h0a6.51,6.51,0,0,0-6-7h0a7.53,7.53,0,0,0-1,0h-.7Zm166.61,2.92c-17.77,0-26.87,8.78-26.87,20.67,0,12.55,7.7,18.47,24.87,22.65,14.51,3.48,18.74,7.08,18.74,13.83s-4.35,11.28-15.84,11.28c-10.11,0-21-2.67-28.11-6.4v10.69c5.92,3,12.78,5.92,27.54,5.92,19,0,26.84-9,26.92-22.19,0-13.75-9.1-19-25.22-23-13.46-3.37-18.35-6.51-18.35-12.78,0-7,5.93-10.46,15.93-10.46a46.93,46.93,0,0,1,23.76,5.81V237.77c-5.24-2.92-12.32-5.56-23.37-5.56Zm-195.44,1.2v53.77c0,7.58-3,12.89-11.88,12.89a29.08,29.08,0,0,1-10.8-2v10.16a37.37,37.37,0,0,0,12.54,2c14.41,0,20.57-9.71,20.57-23.77V233.38Zm341.75,5.9v12.37h-9.42v9.24h9.46v30.65c0,10.82,6.06,18.13,18.48,18.13a23.57,23.57,0,0,0,6.73-.93v-9.66a30.87,30.87,0,0,1-6.27.82c-6.15,0-9.18-3.48-9.23-8.59v-30.5h15.45v-9.23H592V239.28Zm259.5,11.11c-17.66,0-27.41,12.54-27.41,30.09,0,17.82,9.51,30.33,31.25,30.33,5.92,0,13.25-.9,18-3.46v-9.24a51.69,51.69,0,0,1-17.67,3.14c-13.71,0-20.09-6.39-21.49-16.27h42.33v-4.55c0-17.65-7.19-30.08-25.09-30.08Zm-493.07,0c-16.26,0-24.39,13.83-24.39,30.21,0,17.08,7.79,30.21,23.23,30.21,8.94,0,15.93-3.95,19.64-11.62v10.46h10V251.61h-10v10.22c-3.5-7.58-10-11.38-18.49-11.38Zm150.92,0c-17.44,0-27.65,12.67-27.65,30.09s10.34,30.33,27.65,30.33S527,298,527,280.55s-10-30.09-27.44-30.09Zm236.89,0c-16.27,0-24.4,13.83-24.4,30.21,0,17.08,7.79,30.21,23.24,30.21,8.93,0,15.92-3.95,19.62-11.62v10.46h10V251.61H755v10.22c-3.5-7.58-10-11.38-18.48-11.38Zm-418.22.28c-10,0-15.35,4.68-18.5,11.11v-10.2H290v58.13h9.76V275.41c0-12.31,7.79-16.19,20.56-14.87v-9.76c-.7,0-1.39-.07-2.06-.07Zm490.05,0c-10,0-15.36,4.68-18.51,11.11v-10.2H780v58.13h9.75V275.41c0-12.31,7.79-16.19,20.57-14.87v-9.76c-.71,0-1.4-.07-2.06-.07Zm-198,.91,21.38,58.09h12.78l10.12-28.11,5.31-17.89,5.31,17.89,10,28.11H688l21.41-58.09H698.3L681.55,300.9l-17-49.29H655L638.1,300.9l-16.73-49.29Zm-345.4,0v58.08h10V251.61Zm576.34,7.95c10,0,14.86,6.16,15.44,17H824.31v-.07c1-10.07,6.38-16.95,16.93-16.89Zm-489.92.12c8.53,0,15.84,5.68,15.84,18.58V283c0,12.89-8,18.59-17,18.59-10.35,0-15.92-7-16-21,0-13.49,5.82-20.92,17.08-20.92Zm387.81,0c8.53,0,15.84,5.68,15.84,18.58V283c0,12.89-8,18.59-17,18.59-10.35,0-15.93-7-15.93-20.91-.07-13.46,5.78-20.84,17-20.95Zm-239.51.1c12.31,0,17.65,9.7,17.65,20.74s-5.23,21-17.65,21-17.93-10-17.93-21h0c0-11,5.52-20.74,17.85-20.74Z"/><path id="path8005" class="cls-3" d="M191.82,268.71l-43-43-4.18-4.17L97.38,268.71a4,4,0,0,0,0,5.6L127,303.88l17.61,17.62,47.25-47.19a3.94,3.94,0,0,0,0-5.58h0ZM144.6,286.3l-14.78-14.78,14.78-14.79,14.79,14.79Z"/><path id="path8015" class="cls-4" d="M144.59,256.73a24.92,24.92,0,0,1-.09-35.12L112.14,254l17.61,17.61Z"/><path id="path8025" class="cls-5" d="M159.43,271.47,144.59,286.3a24.88,24.88,0,0,1,0,35.19h0L177,289.08Z"/></g></g></g></svg>