<svg xmlns="http://www.w3.org/2000/svg" viewBox="0 0 963 543"><defs><style>.cls-1{fill:#f0f3fa;stroke:#2d3e98;stroke-miterlimit:10;stroke-width:3px;}.cls-2{fill:#75aadb;}.cls-3{fill:#4e4e4e;}.cls-4{fill:#fff;}</style></defs><g id="Layer_2" data-name="Layer 2"><g id="Layer_1-2" data-name="Layer 1"><rect class="cls-1" x="1.5" y="1.5" width="960" height="540" rx="60"/><g id="Layer_2-2" data-name="Layer 2"><g id="Layer_1-2-2" data-name="Layer 1-2"><g id="Blue_Gradient_Letters" data-name="Blue Gradient Letters"><circle class="cls-2" cx="388.96" cy="271.5" r="50"/><path class="cls-3" d="M449.6,286.33a19.65,19.65,0,0,0,10.32,2.92c5.92,0,9.37-3.13,9.37-7.65,0-4.12-2.39-6.59-8.44-8.85C453.54,270.09,449,266.23,449,260c0-7,5.78-12.17,14.49-12.17a20.16,20.16,0,0,1,9.85,2.19l-1.6,4.74a16.57,16.57,0,0,0-8.44-2.13c-6.12,0-8.45,3.66-8.45,6.71,0,4.2,2.73,6.25,8.91,8.65,7.59,2.92,11.38,6.59,11.38,13.17,0,6.91-5.05,13-15.62,13-4.33,0-9-1.32-11.44-2.92Z"/><path class="cls-3" d="M489.77,253.48v7.72h8.38v4.46h-8.38V283c0,4,1.13,6.24,4.39,6.24a10.71,10.71,0,0,0,3.39-.4l.26,4.45a15.61,15.61,0,0,1-5.18.8,8.35,8.35,0,0,1-6.31-2.46c-1.6-1.79-2.26-4.65-2.26-8.44V265.65h-5V261.2h5v-6Z"/><path class="cls-3" d="M531.65,284.54c0,3.39.07,6.31.26,8.84h-5.18l-.34-5.25h-.13a12,12,0,0,1-10.63,6c-5.05,0-11.11-2.85-11.11-14.09V261.2h5.86V279c0,6.11,1.92,10.31,7.19,10.31a8.42,8.42,0,0,0,7.71-5.39,7.83,7.83,0,0,0,.53-3V261.2h5.86v23.34Z"/><path class="cls-3" d="M569.1,246.17v38.9c0,2.86.13,6.12.26,8.31h-5.18l-.26-5.58h-.2c-1.72,3.58-5.58,6.31-10.84,6.31-7.78,0-13.83-6.59-13.83-16.37-.07-10.7,6.65-17.22,14.43-17.22,5,0,8.24,2.32,9.71,4.86h.13V246.17Zm-5.8,28.12a10.7,10.7,0,0,0-.25-2.46,8.62,8.62,0,0,0-8.44-6.71c-6.06,0-9.64,5.33-9.64,12.36,0,6.52,3.26,11.91,9.51,11.91a8.85,8.85,0,0,0,8.57-7,10.38,10.38,0,0,0,.25-2.54Z"/><path class="cls-3" d="M585.38,252.14a3.49,3.49,0,0,1-3.73,3.59,3.44,3.44,0,0,1-3.52-3.59,3.58,3.58,0,0,1,3.67-3.66A3.53,3.53,0,0,1,585.38,252.14Zm-6.52,41.24V261.2h5.86v32.19Z"/><path class="cls-3" d="M623.55,277c0,11.89-8.31,17.09-16,17.09-8.65,0-15.43-6.39-15.43-16.56,0-10.7,7.11-17,16-17C617.31,260.54,623.55,267.25,623.55,277Zm-25.47.34c0,7.05,4,12.36,9.72,12.36s9.78-5.24,9.78-12.51c0-5.45-2.73-12.29-9.63-12.29s-9.87,6.38-9.87,12.43Z"/><path class="cls-4" d="M406.07,287.46h5.42v4.21h-8.28l-13.72-20.56h-7.31v16.35h7.15v4.21h-18v-4.21h6.18V251.22l-6.18-.75v-4a29.47,29.47,0,0,0,6.92.9c3.84,0,7.76-.9,11.61-.9,7.45,0,14.38,3.39,14.38,11.67,0,6.41-3.85,10.47-9.8,12.2ZM382.18,267l3.92.08c9.58.15,13.26-3.53,13.26-8.44,0-5.73-4.15-8-9.41-8a71.12,71.12,0,0,0-7.77.53Z"/><path class="cls-3" d="M620.26,248.5a3.78,3.78,0,1,0,3.78,3.77h0A3.78,3.78,0,0,0,620.26,248.5Zm3.16,3.77a3.15,3.15,0,1,1-3.14-3.14h0A3.15,3.15,0,0,1,623.42,252.27Z"/><path class="cls-3" d="M621.6,253.81l-.94-1.38a1.12,1.12,0,0,0,.81-1.13c0-.82-.69-1.11-1.35-1.11a3,3,0,0,0-.52.05,4.19,4.19,0,0,1-.5,0,2.47,2.47,0,0,1-.6-.08l-.1,0v.54l.55.07v3h-.55v.55h1.76v-.55h-.63v-1.27h.52l1.18,1.77,0,0h.86v-.54h-.52Zm-.73-2.46a.56.56,0,0,1-.22.47,1.37,1.37,0,0,1-.81.19h-.31v-1.24l.6,0c.34,0,.74.11.74.62Z"/></g></g></g></g></g></svg>