<svg xmlns="http://www.w3.org/2000/svg" viewBox="0 0 963 543"><defs><style>.cls-1{fill:#f0f3fa;stroke:#2d3e98;stroke-miterlimit:10;stroke-width:3px;}.cls-2{fill:#2d6a9f;}.cls-3{fill:#3a467a;}.cls-4{fill:#35284b;}.cls-5{fill:#2eadab;}.cls-6{fill:#cddde4;}.cls-7{fill:#fdfdfe;}.cls-8{fill:#11294b;}.cls-9{fill:#f15735;}.cls-10{fill:#2272b5;}</style></defs><g id="Layer_2" data-name="Layer 2"><g id="Layer_1-2" data-name="Layer 1"><rect class="cls-1" x="1.5" y="1.5" width="960" height="540" rx="60"/><path class="cls-2" d="M470.55,439.9c-1.72.19-2.75.55-1.25,2.53,1,1.26.54,2.8-1.28,2.45-2.18-.41-1.41,1.41-1.14,1.53,2.33,1.09,1.1,3.2,1.51,4.79a42.49,42.49,0,0,0,1.67,6.26c.3.73.31,2.19-.69,1.39-2.18-1.74-4.87-1.32-7.24-2.25-4.93-1.93-6.8-5.57-7.4-10-.47-3.42-3.06-5.19-4.68-7.66a77.59,77.59,0,0,1-3.89-7.3,37.55,37.55,0,0,0-2.67-4.94,12.12,12.12,0,0,0-10.54-5.2c-1.74,0-3.55.48-4.41,2.37-.41.9-.72,1.86-1.11,2.77-.88,2-1.59,3.88-4.41,1.67-1.81-1.43-4.2-2.07-6-3.73a7.52,7.52,0,0,1-2.41-4.62,11,11,0,0,0-4.54-7.65,34.7,34.7,0,0,1-7.91-7.86c-.65-1-1.88-1.12-2.38-2.38,1.46-.59,3-.32,4.37-.33,6.6,0,13.2-.14,19.79,0,2.56.07,3.11-.79,3.11-3.21,0-12.39.18-24.78.16-37.17,0-2.17.47-3,2.8-2.92,5.59.16,11.2.16,16.79,0,2.4-.09,2.82.82,2.75,2.94-.15,4.29.13,8.6-.12,12.88-.13,2.24,1.17,4,2.53,4.15,3.85.51,6.83,4.15,11.07,2.91.17-.05.54,0,.56,0,1,3.09,4,1.73,6,2.68.9.44,2.36,2,3.56.06a.85.85,0,0,1,.8-.08c3.9,2.58,7.54-.55,11.3-.71,2.76-.12,4.07,1.67,6.08,2.4a11.74,11.74,0,0,0,3.65,1c0,7.67-.67,15.42,3.52,22.44a3.47,3.47,0,0,1,0,3.21c-1.25,2.35-1.11,4.78-.86,7.26-.93,1.64-1.74,3.4-3.8,3.94-1.18.3-2.57,1.17-2.77-1.15-.1-1.29-1-.59-1.5-.31-.83.43-2.14.13-1.94,2,.54,4.9-3.37,8.32-8.57,7.92-1.94-.15-3.8.19-4.49,2.57s-4.2,2.51-4,5.46Z"/><path class="cls-3" d="M419.66,308.23c-1.88-.66-1.26.87-1.31,1.6-.26,4.16-.23,4.14-4.29,4.15q-14.65,0-29.3.1l-3.63.07-1.15,0c-3.88-.05-7.75-.07-11.63-.15-.93,0-2,.38-2.69-.73,0-5.38,0-10.77.13-16.15.15-6.76-.53-13.55.37-20.3l27-.19c7.87,0,15.73.07,23.6,0,.67,0,2.49.74,1.6-1.36a2,2,0,0,0-.05-2.34c2.21.48,1.35-1.36,1.25-2-.4-2.82.9-3.23,3.37-3.19,9.68.13,19.36.05,29,.05h24c-2.21,1.32-3.09,2.75-1.38,3.81,2.25,1.39,2,3.36,2,5.42q0,5,.06,9.88c0,2.72-1,5.26-.65,8.13s-.89,3.4-3.44,1.93a7.49,7.49,0,0,0-5.75-.6,4.22,4.22,0,0,1-3.83-.63,6.09,6.09,0,0,0-3.93-1q-19.75,0-39.51-.12c-.29-1.39.34-3-.86-4.22a59.18,59.18,0,0,0-.33,8.4c0,.77.52.95,1.18.49C419.6,302.28,419.63,305.26,419.66,308.23Zm-.33-24.47a12.43,12.43,0,0,0,0-6.09c-.25-.4-.82-.49-.84-.13q-.15,3.18,0,6.36C418.51,284.26,419.09,284.17,419.33,283.76Z"/><path class="cls-3" d="M379.92,315.26c.07,11.88.12,23.75.23,35.62,0,1.34-.51,1.69-1.76,1.69-11.28,0-22.56-.06-33.84,0-2.21,0-1.7-1.47-1.7-2.66q0-21,0-41.91c0-1.17-.09-2.33,1.31-3.08l-.38-.62H332.89c-3.6,0-7.19,0-10.78,0-1.32,0-2.14-.26-2.12-1.73.71-6-.74-12.16,1.05-18.11a1.08,1.08,0,0,0-.55-1.28c-3.11-1.09-1.31-2.87-.35-4,2.06-2.45,2.45-5.61,4-8.27a1.94,1.94,0,0,0-.72-2.66c-3.29-1.58-3-4.64-3.15-7.41C320,255,320,249.11,320,243.24c0-.3.09-.59.1-.89.11-4,1.28-4.84,5.41-4,1.19.23,1.09.91,1.1,1.69l.09,7.44c1.92,2.87,3,6,5.92,8.58s7.89,4.69,6,10.43a9.29,9.29,0,0,0-.56,2.82c0,1.08,0,1.88,1.07,2.51a2.24,2.24,0,0,0,2.74-.25c.44-.31.64-1,1.35-.92,2.08,2.76,1.87,6.94,5.75,8.63,1.26.55,4.66,3,5.8,2.58,3-1,6.09-.26,9.06-1l1,.85a.49.49,0,0,0,0,.23,2.44,2.44,0,0,0,.18.41c0,10.76-.45,21.53.08,32.29.63,1.22,1.76.62,2.64.63C371.73,315.3,375.83,315.26,379.92,315.26ZM357.74,305c1.42.52,2.26.83,3.18,0C360.08,304.08,359.25,304.26,357.74,305Z"/><path class="cls-2" d="M418.33,273a2,2,0,0,1,.05,2.34,7,7,0,0,1-3.22.28c-7.34.05-14.67.07-22,.11-9-.09-18.05-.31-27.07.11-.5-.06-.93,0-1.09.6-.07,1.76-1.86,1.39-2.34,1.84-2.18,2-4.58,1.2-6.86,1.69-2.61.55-4.35,1.3-6.39-1.83-1.52-2.32-3.3-4.47-4.37-7.12-.72-1.77-1.74-3.11-3.61-.89a1.18,1.18,0,0,1-1.58.4c-.26-.18-.5-.86-.36-1.06,1.36-2.13-.12-4.57.86-6.78.56-1.27,1.45-3.16-1.61-3.06-.63,0-1.88-1.09-2.75-1.95a69.46,69.46,0,0,1-8.35-10.18,59.74,59.74,0,0,0-.05-6.28c-.26-2.47.77-2.94,3-2.94,23.16.07,46.32,0,69.47,0,1.1,0,2.19-.09,3.29-.13h4.22a25.37,25.37,0,0,0,7.07-.06l3.1.07c.18.11.37.21.56.31l.12,17.39Z"/><path class="cls-4" d="M337.83,393.66c-5.17.47-10.37.73-15.5,1.5-2.62.39-3.49-.83-3.85-2.8-.83-4.5-4.52-6.29-7.52-9-2.66-2.41-6.57-1.86-8.76-4.89-1.53-2.12-4.24-1.35-6.45-1.49-1.94-.11-3-.56-3-2.71a9.45,9.45,0,0,0-3.88-7.92c-2.31-1.88-3.31-4.91-5.65-6.87-.9-.76-.5-1.89.14-3,1-1.65.7-3.3-1.41-3.67-2.73-.47-2.74-2.55-3.45-4.28a1.25,1.25,0,0,1,1.65,0c.57.31,1.22,1,1.82.19.48-.66-.53-1-.62-1.45-.25-1.4-2.85-2.35-.73-4.31.51-.47-.74-1.21-1.43-1.48a1.4,1.4,0,0,0-2,.64c-.22.44.66,1.67-.78,1.25-.64-.19-1.37-.52-1.37-1.38,0-1.95-1.45-2.92-2.64-4.07-2.72-2.63-4.64-5.58-4-9.63.36-2.26-1.12-3.87-2.5-5.21-2.22-2.17-2.16-4-.93-6.82s2.5-6.42,0-9.6c.14-.38.28-.75.43-1.13l30.57.05c0,8,.26,16,0,24-.1,3.23.75,5.39,3.29,7.38,5.71,4.48,10.67,9.85,16.48,14.23h0a5.49,5.49,0,0,0,3.58,3l1.91,2.22c-.05,1,.91,1.21,1.41,1.74,6,6.45,13.81,11.36,17.41,20,.37.88.57,1.22-.16,1.9-2.64,2.47-2.18,6-3.14,9.13a1.91,1.91,0,0,0,1,2.51C339.07,392.3,338.06,393,337.83,393.66Z"/><path class="cls-3" d="M381.24,380.4c0-8.08.05-16.17,0-24.26,0-1.87.39-2.6,2.45-2.58q20.37.21,40.73.15c1.91,0,2.09.83,2.07,2.33-.21,14.07-.41,28.14-.5,42.2,0,2-.64,2.53-2.57,2.51-7.39-.07-14.78,0-22.17.05-1.09,0-2.42-.58-2.74,1.35-.18,1-1.33.58-2.05.59-2.49.05-5,.09-7.48,0-1.66-.07-2.73.16-2.5,2.2.31,2.84-1.9,1.78-3.26,2-1.86.31-2.07-.73-2.06-2.26.06-8.09,0-16.18,0-24.27Z"/><path class="cls-5" d="M321.24,356.49l-1.91-2.22c-.53-1.8-1.35-3.24-3.58-3h0c.62-1.47-.79-1.88-1.46-2.49q-7.39-6.75-15-13.32a5.1,5.1,0,0,1-2.08-4.3c.11-8.48,0-17,0-25.43l44.34-.08c.09.19.19.38.29.57-.45,3.38.11,6.76.09,10.14-.06,14.63-.05,29.26-.07,43.89l-.39,1.44-1.18-.27c-3-1.19-3.81-.71-3.63,2.37.12,2.1.37,4.2.62,7-4.6-4.43-8.73-8.42-12.88-12.39C323.56,357.43,322.8,356.24,321.24,356.49Z"/><path class="cls-4" d="M342.71,360.76a4,4,0,0,0,.11-.58c.24-6.71.24-6.66,7.11-6.61,9.18.06,18.35.11,27.53,0,2,0,2.75.39,2.73,2.58q-.21,24.1-.14,48.2c0,1.88-.39,2.67-2.44,2.58-3.69-.15-7.39,0-11.08-.06a6.56,6.56,0,0,1-2.33-.39q-12.66-4.92-25.29-9.91c-1.43-.56-2.53-1.21-.36-2.35,1.25-1.15,1.89-2.38.16-3.6-.6-.42-.92-1-.67-1.47,1.51-2.69.12-6.42,3.13-8.57.7-.49,1.69-1.24.77-2.17-4.13-4.18-3-9.71-4-14.72-.32-1.69.43-1.89,1.76-1.66.42.71.9,1.28,1.84.83A1.9,1.9,0,0,0,342.71,360.76Z"/><path class="cls-4" d="M434,342.67c0,2.5-.18,5-.07,7.48.08,1.88-.39,2.61-2.46,2.59q-24.09-.19-48.16-.13c-1.84,0-2.11-.78-2.1-2.32.05-11.67,0-23.33,0-35l3.55-.25,48.59.1a8.74,8.74,0,0,1,.27,3.52Q433.81,330.68,434,342.67Z"/><path class="cls-4" d="M319.13,302.65c0,1.33-.58,1.78-2,1.78q-25.32-.09-50.65,0c-1.42,0-2.62-.5-2.58-1.85.1-2.81-1.47-5.57-.25-8.39,2.79-6.45,2.43-13.46,3.55-20.2a16.49,16.49,0,0,0,.09-5.25c-.48-3.1.39-3.69,3.7-3.09a5.78,5.78,0,0,0,1.72-.23,4.52,4.52,0,0,1,2.08,2.42c1,3.54,2.91,4.45,6.45,3a7.28,7.28,0,0,1,4.94-.6c3.1,1,6.25.21,8.87-.68,7.84-2.67,15.82-2.55,23.84-2.36,3,.07,4.2,2.5,3.24,5.28s-2.65,5.23-4,7.82c-.64,1.19-1.14,2.63.41,3.36s1.17,1.65,1,2.68C318.44,291.73,319,297.2,319.13,302.65Z"/><path class="cls-4" d="M474.19,250.33c-1.9-3.4-1.68-7.18-2-10.88-.12-1.52.84-1.3,1.71-1.3,3.69,0,7.39-.05,11.08,0,1.59,0,2.8-.15,2.59-2.2-.06-.59.09-1.25.9-1.28a1.08,1.08,0,0,1,1.13,1.14c.07,4.47,2.94,5.18,6.64,6a9.36,9.36,0,0,0,5.17,0c2.58-.8,4.52.79,6.13,2.53.77.84.9,1.41,2.21.45,1.15-.85,2.35.78,3.44,1.37s2.27,1.57,3.26.82c3.09-2.38,6.14.65,9.19-.16.46-.13,1.13.52,1.88.9-1.49,1.6-3.44,1.46-5,2.14-2.93,1.24-4.91,3.71-7.37,5.55a21,21,0,0,1-3,2c-2.75,1.37-4.38,3.27-3.71,6.57a1.92,1.92,0,0,1-.73,2.14c-3.44,1.42-3.6,1.82-2.5,5.59.11.4-.23.92-.32,1.39-1,4.86-.56,6.16,3.84,8.24,2.77,1.31,4.23,4.07,6.94,5.35,1,.46,1.05,1.67.81,2.67-.28,1.16-1.32.63-2,.63-11.48.05-23,0-34.44.12-1.75,0-2.21-.54-2.17-2.21.08-4.29,0-8.58,0-12.87,0-1.4.14-2.74-1.59-3.47-.91-.39-1.51-1.21-.36-2.32,1.67-1.61,1.51-3.78.63-5.58-1.42-2.89-1.09-6-1.76-9C474.45,253.25,475.19,251.68,474.19,250.33Z"/><path class="cls-4" d="M419.48,255.82c0-5.09.16-10.18,0-15.27,0-1.91.55-2.32,2.35-2.31,15.49.06,31,.08,46.46,0,2.39,0,3.35,1,3.06,3.1a15.17,15.17,0,0,0,2.22,9.69c.52,4.39-.4,8.95,2,13.12.73,1.29.27,2.36-1.72,2.36q-26.07-.11-52.13,0c-1.82,0-2.16-.7-2.12-2.3C419.69,261.4,419.54,258.61,419.48,255.82Z"/><path class="cls-2" d="M490.34,332.51c1.1,2.05.44,4.25.47,6.37.06,3.67-.31,7.36-.21,11,.06,2.2-.78,2.6-2.76,2.56-4.17-.09-8.35.09-12.52.15l-.6,0L438,352.48c-1,0-2-.06-3-.08,0-8.28,0-16.55-.13-24.82,0-2.27.63-2.85,2.86-2.83,13.35.1,26.71.06,40.07.06,2.29,0,4.58-.08,6.87,0,1.37.05,3.13.79,2.78,2.1C486.63,329.92,488.7,331,490.34,332.51Z"/><path class="cls-4" d="M419.66,308.23c0-3-.06-6-.08-8.92,0-1.06,0-2.13,0-3.19,12.28,0,24.56,0,36.84,0,2.73,0,5.38,0,7.66,1.77.91.7,1.77.3,2.78,0,3.49-1,8.87,1,10.11,3.85,1.7,3.91,3.65,7.88,4,12.1a18.45,18.45,0,0,0,3.91,9.79H435.13c-.78-2.33-.35-4.73-.29-7.09.05-1.92-.47-2.66-2.5-2.57-3.28.15-6.59-.17-9.86.1-2.64.21-3.32-.77-2.94-3.14A23.71,23.71,0,0,0,419.66,308.23Z"/><path class="cls-3" d="M623.47,338.57c-.27.59-.26,1.61.11,1.65,3.72.35,2.55,4.45,4.7,6,.71.5,1.93,1.77-.62,1.55-.83-.07-.18,1.64-1.14,2.52-1.45,1.33.81,1.15,1.28,1.77,1.2,1.61,2.38,3.2,4.84,2.47a1,1,0,0,1,1.18,1c0,1-.67,1.16-1.41,1.18-2.89.09-5.79.19-8.68.17-9-.05-18-.16-27-.22a4.42,4.42,0,0,0-3.59.92c14,.85,27.18.5,40.39.89-1.26,1.41-2.87,1.86-3.7,3.21-.81-.31-.66-.76-.56-1.28.15-.8-.22-1.49-1.08-1.36s-.46,1-.51,1.5c-.2,2.34.46,3.82,3.24,3.33.5-.09,1.69-.27,1.56.09-.51,1.43,1.11,2.26.8,3.38a1,1,0,0,1-1.87.3c-1.55-2.9-3.53.2-5.26-.44-.36-.13-.39.9.22,1.31a14.84,14.84,0,0,1,2,1.37,1,1,0,0,1,0,1.37c-.27.41-.65.23-1,.06-.63-.27-1.14-1.63-1.9-.62s.56,1.49,1,2.19c.31.47,1.21.36,1.17,1.15-.85,1.4-1.8-.19-2.89.18-2.8,1-3.64,3.6-4.94,5.55-1.58,2.37-3.21,2.85-5.62,2.4a52,52,0,0,0-8-8.27c-3.09-1.21-6.74.52-9.6-1.84l0,0c.47-1.68-.77-1.93-1.87-2-4.7-.24-9.35-1-14,1-3,1.3-6.51.73-9.89.41,1.26-1.16,2.47-2.09,2.94-3.63,6.9-2.67,14-5.07,19.27-11.2-4.47-1.29-8.76.3-13.27-.62,2.33-2.46,4.39-4.73,7.16-6.22.33-.17.74-.53,1-.07,1.71,2.56,4.27,1.71,6.39,1.24,2.7-.59,6.3-.86,7.39-3.45.83-2,2.2-3.61,3-5.59.51-1.27,1.28-3.2,3.63-2.23.85.35,1.34-.57,1.71-1.33s.64-1.71,1.21-1.94a9,9,0,0,0,5.17-5.68c1.76.09,2.56,3.68,4.75,1,.17-.22.37-.1.39.18.1,1.85,2,1.73,3,2.6.74.65.91,1.21.26,2C624.25,337.24,623.42,337.62,623.47,338.57Z"/><path class="cls-4" d="M276.77,239.18c.48-1.6,1.83-.82,2.73-.83,7.91-.15,15.83-.2,23.74-.27a9.94,9.94,0,0,0,4.1,0,20.11,20.11,0,0,0,5.48,0,19.35,19.35,0,0,0,5.32,0c1.73,1.45.31,3.45.91,5.09-.05,6.37-.57,12.79,0,19.1.34,3.39-.17,3.88-3.29,3.72-7.25-.35-14.42,0-21.44,2.43-1.87.63-4.25,1.38-6.22.95a13,13,0,0,0-7.79.48c-2,.74-4.16.94-4.5-2.3a2.88,2.88,0,0,0-2.07-2.66,4.43,4.43,0,0,0-2.89-1.12c-4.61.57-2.24-3.92-4-5.27,3-2.4-.84-2.15-1.28-3.2-1.19-2.88-1.72-6.05-3.79-8.55a1.71,1.71,0,0,1,.05-2c.64-.82,1.28,0,1.79.23,2.19,1.15,4.6,1.2,7,1.46a11.33,11.33,0,0,1,5,1.72c-1.76,2-3.91,3.81-2.59,7.08.38,1,.78,1.62,1.76,1.69,2.1.14,4.71-2.93,4.6-5.13-.07-1.33-.42-2.77.73-3.91.19-.2.42-.7.34-.78-2.06-2.08-1.18-5.18-2.59-7.47Z"/><path class="cls-5" d="M528.68,362l-3.27.23c.36-1.51,1.93-2.7.64-4.14s-2.8-.75-4.22-.75c-9.16-.05-18.32-.08-27.48,0-2.2,0-2.93-.55-2.86-2.83.25-7.26.29-14.52.39-21.78,0-.23-.27-.47-.41-.71-1.33-1.54-4.08-2.53-1.88-5.38.5-.65,0-2-.72-2-2.95.24-2.93-2.61-4.34-3.92-1.12-1-.82-1.92,1-1.87,3.09.08,6.18.13,9.27.12,5.69,0,11.38-.15,17.07-.12,1.89,0,3.18.76,2.89,3.15a7.68,7.68,0,0,0,2.12,6.26c1.63,1.86,4.28,3.11,4.19,6.23a1.08,1.08,0,0,0,1.53,1c2.61-1.07,2.21.72,1.86,2.07-1.16,4.52-1,5.21,2.86,7.5,2,1.18,3,2.52,2.78,5a3.69,3.69,0,0,0,1.9,3.48c1.39.81,1.15,2.08.07,2.39C528.7,356.85,529,359.53,528.68,362Z"/><path class="cls-6" d="M459.25,353.58c9.58,0,19.17.06,28.76-.05,2.17,0,3.09.51,2.92,2.83-.28,3.79.49,7.5,1.05,11.24.75,5.06-.85,10.1-.5,15.2.08,1.15-.65,1.51-1.47.67-2.74-2.76-5.92-1.58-8.89-.89-2,.47-3.7,1-5.85-.11-2.34-1.22-5.34.64-7.81-.74-2.8-1.58-5.88-1.62-8.9-2.18-2.11-.4-3.51-2.62-6.12-2.59-1.18,0-1.77-1.85-1.74-3.42.09-4.39-.08-8.79.07-13.18.1-2.55-.91-3.29-3.34-3.23-5.68.13-11.38,0-17.07,0-1.43,0-2.94.13-3-2s1.65-1.59,2.8-1.59c9.69,0,19.37,0,29.06,0Z"/><path class="cls-5" d="M612,329l3.08.53a5.64,5.64,0,0,1-1.37,3.55c-1.57,1.79-4.45,2.28-5,5.13-.1.54-.82.42-1.23,0-1.79-1.76-2.18-.38-2.77,1.11-1.11,2.87-3.42,5.08-4.54,8-.45,1.16-8.63,3.42-9.85,2.86-.43-.19-1-.59-1.06-1-.23-1.37-1.34-1.84-2.25-2.6a10.5,10.5,0,0,1-3-5.05c-.59-1.81,1.57-1.73,2.15-2.8a5.84,5.84,0,0,0,.87-2.5,3.63,3.63,0,0,1,.56-1.29c3,1.31,2.39-1.46,3.13-2.74.49-.86,1.44-1.13,2.39-1.53,2.31-1,4.46-2.33,4.48-5.33.16-.73.79-1.63.07-2.16-.48-.35-.57.49-.66.92-.84,2.19-1.5,4.58-4.12,5.35s-6.57,4.4-7.23,6.76c-.77,2.73-1.37,2.89-3.43.82-.59-.58-.74-1.58-2-1.18-3.86,1.17-7.28.51-9.9-2.83-.36-.46-.81-1-1.48-.84-1.68.36-1.82-.67-1.82-1.89q.06-10.33.11-20.65a2.13,2.13,0,0,1,.64-1.62c3.16.15,6.36-.53,9.47.49.66.21,1.69.24,1.91.68.94,1.89,2.72,1.75,4.22,1.69,3.21-.13,6.56,0,9.24-2.36.08-.06.14-.14.22-.2,1.52-1.22,3.53-2.33,5.14-1.83,1.44.44.77,2.85.8,4.33,0,2.61.3,5.17-.82,7.83-1,2.47,1,5.16,1,7.87,0,.75.83.74,1.42.75a26.89,26.89,0,0,0,3.59,0c2.08-.24,2.94.52,2.71,2.65-.07.67-.46,1.9.61,2,.79.06,2.07-.27,1.78-1.74l0,0c1.24.16,2.42.17,3-1.23Z"/><path class="cls-3" d="M508.45,266.7c2.15-.88.92-2.76,1.2-4.18.16-.83-.23-2.09,1.15-1.94,3.16.34,5.74-1.41,8.88-2.11-.46,1.7-.79,3.37,2,2.72.73-.17,1.66.55,2.5.85.76.61.84,2,1.93,2.09,4.39.54,8.33,2.95,12.81,3,4,1.18,3.5,5.12,4.78,7.92.51,1.11-1.25,1.82-1.65,2.9s-1.48,2.18-.44,3,1.81-.75,2.68-1.3c.62-.39.61-1.54,1.74-1.48.7.82-.2,1.37-.38,2-1.12,4.15-2.29,8.28-3.34,12.44a6.8,6.8,0,0,0,.47,4.12,2.59,2.59,0,0,1-.32,2.76c-5.87,0-11.75,0-17.62,0-4.35,0-6.14-2-5.78-6.41a1.94,1.94,0,0,0,0-.59A16.25,16.25,0,0,0,510.32,281c-4.53-2.4-4.94-3-3.94-8,.1-.47.36-1.15.15-1.42C504.25,268.73,506.78,267.9,508.45,266.7Z"/><path class="cls-6" d="M508.45,266.7c-1.67,1.2-4.2,2-1.92,4.84.21.27,0,.95-.15,1.42-1,5-.59,5.6,3.94,8A16.25,16.25,0,0,1,519,292.54a1.94,1.94,0,0,1,0,.59c-.36,4.39,1.43,6.4,5.78,6.41,5.87,0,11.75,0,17.62,0,0,.38,0,.76.07,1.13-5.59,0-11.19.06-16.78.13-.81,0-2.73-.16-1.37,1.32s2.36,2.82,1.29,4.92c-.94,1.84-2.17,3.48-4.26,3.77s-2.26.94-1.62,2.86-.58,3.54-1.76,4.83c-2.53,2.77-2.7,5.7-.55,8.68,1.49,2,4.42,3,4.54,6.06,0,.44.41.48.83.6,4,1.09,4.21,1.19,2.3,5.07-1,2-.29,2.93,1.22,3.88,2.89,1.82,5.72,3.62,5.1,7.82-.12.82.68,1.47,1.56.4s1.9-.84,3-.38c.46.19,1.17.94,1.47.08.84-2.45,3.47-3.86,3.55-6.82a7.29,7.29,0,0,1,2.22-5c.82-.82,2.08-2.2,1.57-3.37-1.37-3.08.2-6,.14-8.95-.1-6,.09-12,.17-18,.58.05,1.2-.05,1.62.52-.88.82-.49,1.88-.5,2.83,0,4.29.08,8.59-.07,12.88-.21,6,1.14,12.31-3.07,17.63-.15.18-.08.54-.14,1.12,2.64-1.14,5.14,1.25,7.94-.41a8.68,8.68,0,0,0,2.59-1.53c.66-.74,1.59-1.14,2.16.06.65,1.37.81.85,1.77.11,2.5-1.94,2.56-6.62,7.05-6.3.4,0,.63-.38.69-.84a35.77,35.77,0,0,0,.58-4.08c.08-6.79,0-13.58.13-20.37,0-1.95-.74-2.32-2.46-2.28-4.19.09-8.38,0-12.58,0,2.88-1.18,5.89-.33,8.84-.54,2.28-.16,4.59-.06,6.89-.08h0c.13.65.69.64,1.16.75a2.13,2.13,0,0,0-.64,1.62q0,10.32-.11,20.65c0,1.22.14,2.25,1.82,1.89.67-.15,1.12.38,1.48.84,2.62,3.34,6,4,9.9,2.83,1.31-.4,1.46.6,2,1.18,2.06,2.07,2.66,1.91,3.43-.82.66-2.36,4.66-6,7.23-6.76s3.28-3.16,4.12-5.35c.2.41.39.82.59,1.24,0,3-2.17,4.37-4.48,5.33-1,.4-1.9.67-2.39,1.53-.74,1.28-.08,4-3.13,2.74a3.63,3.63,0,0,0-.56,1.29,5.84,5.84,0,0,1-.87,2.5c-.58,1.07-2.74,1-2.15,2.8a10.5,10.5,0,0,0,3,5.05c.91.76,2,1.23,2.25,2.6.07.38.63.78,1.06,1,1.22.56,9.4-1.7,9.85-2.86,1.12-2.91,3.43-5.12,4.54-8,.59-1.49,1-2.87,2.77-1.11.41.4,1.13.52,1.23,0,.54-2.85,3.42-3.34,5-5.13a5.64,5.64,0,0,0,1.37-3.55l.79-.57c1.23.21,1.88,1.27,2.81,1.93s1.1,0,1.24-.7h1.26c2.2.1,1.93,3.28,4.29,3.35,1.89.06,1.85,1.19,1.13,2.66a10.85,10.85,0,0,1-2.08,2.42l-1.06,0c-.05-.95.78-1.33,1.26-1.93.65-.8.48-1.36-.26-2-1-.87-2.85-.75-3-2.6,0-.28-.22-.4-.39-.18-2.19,2.73-3-.86-4.75-1a9,9,0,0,1-5.17,5.68c-.57.23-.87,1.25-1.21,1.94s-.86,1.68-1.71,1.33c-2.35-1-3.12,1-3.63,2.23-.78,2-2.15,3.6-3,5.59-1.09,2.59-4.69,2.86-7.39,3.45-2.12.47-4.68,1.32-6.39-1.24-.3-.46-.71-.1-1,.07-2.77,1.49-4.83,3.76-7.16,6.22,4.51.92,8.8-.67,13.27.62-5.31,6.13-12.37,8.53-19.27,11.2l-.62-.66c2.07-1.53,5-1.5,6.79-3.36a9.56,9.56,0,0,1,4.21-2.35c1.82-.62,4.6-.77,5-3.93-9.05.22-17.9,0-26.76-.41a164.11,164.11,0,0,0-26.86,1c-2.81.33-5,.46-5.6,3.64h-1.2c.35-2.42,0-5.1,3.34-6,1.08-.31,1.32-1.58-.07-2.39a3.69,3.69,0,0,1-1.9-3.48c.26-2.46-.76-3.8-2.78-5-3.9-2.29-4-3-2.86-7.5.35-1.35.75-3.14-1.86-2.07a1.08,1.08,0,0,1-1.53-1c.09-3.12-2.56-4.37-4.19-6.23a7.68,7.68,0,0,1-2.12-6.26c.29-2.39-1-3.13-2.89-3.15-5.69,0-11.38.1-17.07.12-3.09,0-6.18,0-9.27-.12-1.77-.05-2.07.83-1,1.87,1.41,1.31,1.39,4.16,4.34,3.92.74-.06,1.22,1.31.72,2-2.2,2.85.55,3.84,1.88,5.38l-1.13.5c-1.64-1.5-3.71-2.59-2.9-5.6.35-1.31-1.41-2.05-2.78-2.1-2.29-.08-4.58,0-6.87,0-13.36,0-26.72,0-40.07-.06-2.23,0-2.9.56-2.86,2.83.16,8.27.11,16.54.13,24.82a4.44,4.44,0,0,1-.48-1.36c0-8.39-.05-16.78,0-25.16a9.06,9.06,0,0,1,.63-2.27h49.78a18.45,18.45,0,0,1-3.91-9.79c-.39-4.22-2.34-8.19-4-12.1-1.24-2.86-6.62-4.81-10.11-3.85-1,.28-1.87.68-2.78,0-2.28-1.79-4.93-1.78-7.66-1.77-12.28.06-24.56,0-36.84,0,0-.49,0-1,0-1.48q19.76.08,39.51.12a6.09,6.09,0,0,1,3.93,1,4.22,4.22,0,0,0,3.83.63,7.49,7.49,0,0,1,5.75.6c2.55,1.47,3.78.9,3.44-1.93s.69-5.41.65-8.13q-.06-4.94-.06-9.88c0-2.06.23-4-2-5.42-1.71-1.06-.83-2.49,1.38-3.81H452c-9.68,0-19.36.08-29-.05-2.47,0-3.77.37-3.37,3.19.1.65,1,2.49-1.25,2l.12-17.13h1c.06,2.79.21,5.58.15,8.37,0,1.6.3,2.3,2.12,2.3q26.06-.09,52.13,0c2,0,2.45-1.07,1.72-2.36-2.38-4.17-1.46-8.73-2-13.12l.57-.68c1,1.35.26,2.92.58,4.34.67,3,.34,6.1,1.76,9,.88,1.8,1,4-.63,5.58-1.15,1.11-.55,1.93.36,2.32,1.73.73,1.59,2.07,1.59,3.47,0,4.29.11,8.58,0,12.87,0,1.67.42,2.22,2.17,2.21,11.48-.1,23-.07,34.44-.12.68,0,1.72.53,2-.63.24-1,.16-2.21-.81-2.67-2.71-1.28-4.17-4-6.94-5.35-4.4-2.08-4.8-3.38-3.84-8.24.09-.47.43-1,.32-1.39-1.1-3.77-.94-4.17,2.5-5.59Zm-11.16,24.48v0c-5,0-10,0-15,0-2.44,0-4.71-1-4.79,3.67a24.11,24.11,0,0,0,1.76,8.95c1.33,3.7,3.14,7.28,3.17,11.25,0,2.28.88,2.66,2.79,2.64,7.89-.09,15.78-.1,23.67-.11,1.68,0,3.38-.32,5,.24,2.3.77,5.57-1.76,4.55-3.8-1.9-3.8.33-4.16,3-4.78,1.9-.44,4-3.53,3.11-4.71-1.41-2-2.88-4.19-4.88-5.37s-2.77-2.79-2.48-4.6c.51-3.15-1-3.5-3.49-3.44C508.28,291.26,502.79,291.18,497.29,291.18Zm36.6,65.65c4.55,1.59,8.4-1.31,12.75-1,8.14.55,16.34-.14,24.5.67a11.12,11.12,0,0,0,9.13-2.8c1.57-1.52,3-3.15,5-4.11,1.11-.52,1.45-1.13.39-2.45-1.55-1.94-3.16-4-2.84-6.89a2.56,2.56,0,0,0-2.73-2.73c-4,.5-7.54.19-10.39-3.15-.78-.9-2.42-1.65-2.65.74-.08.83-.39,1.46-1.15,1.5-2.83.17-4,2.31-5.7,4.14-1.34,1.47-2.19,4.73-5.44,2.71-.12-.08-.52.21-.73.39-2,1.73-4.37,1.61-6.77,1.36-2.07-.2-5.17-.21-5.33,1.65-.22,2.73-4.44,2.53-3.31,5.65.12.33-1,.42-1.53.07-2.64-1.83-3.32-.87-2.93,1.94A9.72,9.72,0,0,1,533.89,356.83Z"/><path class="cls-2" d="M545.13,308.57c-.08,6-.27,12-.17,18,.06,3-1.51,5.87-.14,8.95.51,1.17-.75,2.55-1.57,3.37a7.29,7.29,0,0,0-2.22,5c-.08,3-2.71,4.37-3.55,6.82-.3.86-1,.11-1.47-.08-1.09-.46-2.14-.66-3,.38s-1.68.42-1.56-.4c.62-4.2-2.21-6-5.1-7.82-1.51-.95-2.2-1.88-1.22-3.88,1.91-3.88,1.75-4-2.3-5.07-.42-.12-.81-.16-.83-.6-.12-3.06-3-4-4.54-6.06-2.15-3-2-5.91.55-8.68,1.18-1.29,2.35-3.06,1.76-4.83s-.52-2.58,1.62-2.86,3.32-1.93,4.26-3.77c1.07-2.1.17-3.33-1.29-4.92s.56-1.3,1.37-1.32c5.59-.07,11.19-.09,16.78-.13Z"/><path class="cls-6" d="M497.59,419.55c-.25-2.48-.39-4.91.86-7.26a3.47,3.47,0,0,0,0-3.21c-4.19-7-3.55-14.77-3.52-22.44.41-.32.8-1,.14-1.05-2.81,0-2.47-1.9-2.43-3.68a78.08,78.08,0,0,1,.45-8.63c.53-3.74-.13-7.51-.91-11.22-.67-3.18-.21-3.72,2.94-3.72q13.6,0,27.21,0c3.13,0,3.45.51,1.73,3.12-1,1.5-.33,1.67,1,1.7.88,0,1.76.08,3.09.14A29.54,29.54,0,0,0,523.9,374h0a1.85,1.85,0,0,0-2.22,1.87,5.25,5.25,0,0,1-1.48,2.83c-2.33,2.92-4.2,6-2.93,10a3.88,3.88,0,0,1-.73,3.41c-6,0-12,0-18,0-.8,0-2.15-.42-2.09.93.13,3-.58,6,.72,9.09s3.84,6.45,2.61,10.13a27.42,27.42,0,0,0-1.1,7.3Z"/><path class="cls-2" d="M595.27,401c-1.71,3.71-4.54,7-4.23,11.57-1.81-.34-3.65-1.33-4.27,1.49-.24,1-1.72.58-2.66.65s-2.17.07-3.25.1l-1.35-.07c-.94-1.93-2.67-.88-4.08-1.08l-7.68-.65c-.78-.06-1.47-.05-1.83-1.07-1.41-4.08-2-8.16-.24-12.26.66-1.53.5-2.68-.88-3.63l.05,0c-1.14-6.63-2.19-13.27-3.49-19.87-.45-2.28,0-3,2.37-2.91,4.08.12,8.16-.09,12.23-.17.81,0,1.63-.12,1.88.94l0,0c-1.3.82-.93,1.61,0,2.38a13.2,13.2,0,0,1,4.73,5.5,11,11,0,0,0,1.65,2.07c4,4.84,8.24,9.61,9.69,16A1.31,1.31,0,0,0,595.27,401Z"/><path class="cls-2" d="M652.87,303.22a38.31,38.31,0,0,0-.66,7.63c0,1.73-.57,3.11-2.36,3.71v0c.48-.67-.16-.87-.51-1.08-3.25-1.91-7.1-3.1-8.33-7.35-.13-.46-.9-.73-1.38-1.09-.77-1.2-2-.69-3-.7-9.48,0-19,0-28.45,0-.82,0-2,.5-2.36-.66s.87-1.38,1.54-1.87c1.12-.82,2.3-1.57,3.37-2.44,1.35-1.09,2.52-2.18,1.07-4.17-.93-1.27-.26-2.22,1.34-2.42,2.66-.32,5.29-.75,7.92.44,2.1,1,10.07-1.11,11.3-2.77a2,2,0,0,0,.34-1.13c0-6.82,4.85-9.83,10-12.64l.65,0,7.17,0,3,.25,0,0c.49,3.73-.27,7.45-.34,11.16,0,1.92,1.24,3.08,1.19,4.94A56.77,56.77,0,0,1,652.87,303.22Z"/><path class="cls-4" d="M579.51,414.72l1.35.07c1.7,1.26,4.62-.44,5.76,2.54.31.79,1.44.07,1.54-.9s0-1.95,0-3.08c2,.32,3,.89,3.6,3.17a298.25,298.25,0,0,0,10,32.34c1.49,3.93.42,8.08-.65,12-.18.67-.74,1.25-.82,1.91-.19,1.53-.4,3-2.24,3.33s-2.41-1.52-3.15-2.43c-1.39-1.72-1.8-4.23-4.46-4.83-.28-.07-.62-.87-.56-1.28.44-2.87-2.94-4.85-1.82-7.88.14-.37-.27-.59-.68-.78-3.53-1.6-4-3.05-2.29-6.86.52-1.14.65-2.16-.82-2.61-1.64-.5-1.72-1.43-1.33-3,.9-3.62,1.44-7-2.74-9.52-1.86-1.1-2.78-3.73-4.25-5.56-2.54-3.17-4.27-3.34-7.45-.91-3,2.28-4.85,1.86-7-1.06-.78-1.07-1.28-3.13-3.52-2.39-.69.23-1-.34-1.27-1-.43-1.16-1.41-1.33-2.46-1.2-1.8.21-3.58,1.38-5.35-.44-.71-.73-1.17.59-1.94,1.3,0-1.33,0-2.5-1.21-3.1l0,0c-.59-1.37.22-1.49,1.27-1.49l15.83,0c.58,0,1.46-.09,1.57.53.55,3,2.81,2.5,4.84,2.49.22.26.45.35.72.08l5.45.32Z"/><path class="cls-6" d="M545.81,412.66c-.08.39-.17.78-.25,1.17-.2,1.08.5,2.82-1.13,3-1.31.11-1.2-1.5-1.44-2.54-.15-.64-.28-1.56-1.11-1.54s-.87,1-1.1,1.59a3.28,3.28,0,0,1-.7,1.38c-.9-2.68-.69-5.5-1.11-8.21-.67-4.36.34-8.72.65-13.08.4-5.83,1.19-11.64,1.62-17.47.3-4,.33-4.26,4.35-4.15s7.94-.22,11.93.33c2.2.3,2.57,1.51,2.83,3,.9,5.28,1.69,10.57,2.57,15.85.25,1.49,0,3.26,1.93,4l-.05,0c-.73,4.71-1.79,9.39-.89,14.43-3.07-.78-5.85-.39-8.62-.45-3-.06-6,0-9,0-1,0-1.81.33-1.93,1.44s.29,1.55,1.4,1.23Z"/><path class="cls-2" d="M635.91,325.9a.68.68,0,0,0-.45.28L600,326l-.11-4.18V320l-.09-8.39a15.56,15.56,0,0,0-.05-5.36,8.82,8.82,0,0,1,3.22-2.05c.42-.22,1.1-.64,1.3-.11,1,2.47,3,1.45,4.6,1.47,9,.09,18.07,0,27.11.06,1,0,2.21-.45,3.09.55,1.37,1,.93,3.11,2.21,4.06,1.52,1.11.74,2,0,2.94-2.4,3.26-2.44,4.82.22,8,.93,1.09.37,1.41-.22,2.34C640,325.58,637.43,324.49,635.91,325.9Z"/><path class="cls-6" d="M523.9,374c4.93-2.31,10.16-.82,15.25-1.12,1.05-.06,1.32.7,1.24,1.86-.59,9.18-1.72,18.31-2.6,27.47-.36,3.75.79,7.48.56,11.28-.11,1.82-.31,3-2.54,2.19-1-.37-1.69.37-2.51.67-1.64.61-3.25,1-4.75-.31l.12,0a8.85,8.85,0,0,1,.07-2.68c.94-2.76-.59-2.87-2.65-2.8-3,.11-6,0-9,0-1.67,0-2.47-.61-1.71-2.4.69-1.62,1-3.31,2-4.89s3.14-3.28,2.56-5.15a33.5,33.5,0,0,1-1.15-10.44c0-2.92.28-5.55,2.16-7.68a13.53,13.53,0,0,0,2.93-6Z"/><path class="cls-5" d="M566.57,307.3c-.73-1.05-1.83-.57-2.75-.58-2.9-.05-5.81-.09-8.7.09-2.37.14-2.34-.86-1.26-2.33,3-4.13,3.36-8.4.87-12.87-1-1.81-.44-3.74-.17-5.49a21,21,0,0,1,3-8.23c.43-.66,1.45-2.52,2.43.13.57,1.58,1.78.46,2.24-.62.74-1.75,0-4.46,3.15-4.57.41,0,.27-.55.17-1-.46-2.05.52-2.95,2.47-2.16,2.54,1,5,2.2,7.5,3.35.42.19,1.11.7,1.05.88-.66,2.29,1.16,4.24.79,6.45a7.62,7.62,0,0,1-3.57,5.06c-1.24.86-1.84,2.19-.75,3.6s2.35,1.21,3.48-.07c.46-.52.88-1.07,1.33-1.59.88-1,2-1.86,3.34-1.47s1.47,1.7,1.62,2.95c.2,1.67.58,3.33.8,5a4.14,4.14,0,0,1-1.49,4.38,14.81,14.81,0,0,0-3.57,5.2c-1,2.18-2.16,3.62-4.82,3.53-2.39-.08-4.78.2-7.17.32Z"/><path class="cls-5" d="M498.72,419.51a27.42,27.42,0,0,1,1.1-7.3c1.23-3.68-1.26-6.93-2.61-10.13s-.59-6.07-.72-9.09c-.06-1.35,1.29-.93,2.09-.93,6,0,12,0,18,0,1.48,3.73,2.16,7.34-.79,10.83-1.29,1.53-1.61,3.63-2,5.55s.11,3,2.44,2.89c3.86-.17,7.73-.05,11.7-.05-.24,1.76-1.27,3.53.8,4.67l-.12,0c.36,1.81-.5,1.54-1.52.86-1.18-.79-2.32-1.28-3.36.18-.46.65-1,1.33-.73,2.18s1.17.94,2,1.07c3.66.58,4.48,1.66,4.15,5.72-2-1.62-3.73-2.09-3.51,1.45-1.5-.41-2.85-1.9-4.24,0a1.35,1.35,0,0,1-2.29-.14c-.88-2-3-2.74-4.2-4.5s-4.31-1.9-5.12-.33c-1.07,2.06-2.56,1.58-3.65.9-2.52-1.58-5.2-1.7-8.12-1.48Z"/><path class="cls-5" d="M529.88,362c.62-3.18,2.79-3.31,5.6-3.64a164.11,164.11,0,0,1,26.86-1c8.86.41,17.71.63,26.76.41-.42,3.16-3.2,3.31-5,3.93a9.56,9.56,0,0,0-4.21,2.35c-1.81,1.86-4.72,1.83-6.79,3.36-1.08,1.44-2.82,2.25-3.5,4.11-.36,1-1.6.57-2.45.56-9.67-.08-19.33-.21-29-.28-2.89,0-5.78.19-8.67.19-.89,0-2.16.57-2.59-.74a3.85,3.85,0,0,1,.4-3.36C528.34,366,529.85,364.27,529.88,362Z"/><path class="cls-2" d="M550.84,307.92c4.2,0,8.39.08,12.58,0,1.72,0,2.49.33,2.46,2.28-.13,6.79,0,13.58-.13,20.37a35.77,35.77,0,0,1-.58,4.08c-.06.46-.29.87-.69.84-4.49-.32-4.55,4.36-7.05,6.3-1,.74-1.12,1.26-1.77-.11-.57-1.2-1.5-.8-2.16-.06a8.68,8.68,0,0,1-2.59,1.53c-2.8,1.66-5.3-.73-7.94.41.06-.58,0-.94.14-1.12,4.21-5.32,2.86-11.63,3.07-17.63.15-4.29,0-8.59.07-12.88,0-.95-.38-2,.5-2.83h1.12a1.14,1.14,0,0,0,1.33-.44Z"/><path class="cls-4" d="M672.83,273.92a9.64,9.64,0,0,0,5.28-6.71c1.18-5.63,4.2-9.83,8.08-14.32.47,3,2.22,2.6,4.17,2.06,4.51-1.26,6.08,0,6.07,4.74,0,2.79-.1,5.58-.2,8.36,0,.82-.21,1.72.72,2.07a3,3,0,0,1,2,3.19c0,.76.37,1.65,1,1.65,2.92,0,.66,2,1.11,3,.6,1.26-1,.46-1.53.83-2.57,1.79-5.78,1.33-8.59,2.29-.43.14-.68.2-1-.2-1.78-2.25-2.73.67-2.74.94-.13,3.13-2.79,3.89-4.74,4.22-3.51.59-5.38,2.47-6.65,5.49a9.07,9.07,0,0,1-1.42,1.84,6.88,6.88,0,0,1-1.23-4.13c-.16-3.74-.51-7.47-.78-11.21a10,10,0,0,0-.28-3.73Z"/><path class="cls-2" d="M577.84,374c1.73.28,2.52-1.39,3.93-1.9,5-1.77,9.85-1.24,14.76.08l0,0c.24,4.17,3.39,2,5.35,2.48,3.08-.23,5.15,1.45,7,3.61,1.31,1.49,2.8,2.8,4.22,4.19l.2.62-.4.55a26.43,26.43,0,0,0-4.73,6,16.65,16.65,0,0,1-7.64,5.91c-1,.41-1.76,2.4-3.51,1.14-.34-.24-.51.86-.44,1.45.11,1,.1,1.86-1.29,1.69.11-2-1.57-3.46-1.95-5.06-1.1-4.64-4.72-7.35-7.23-10.87-1-1.33-2.5-2.34-3.09-3.92a6.59,6.59,0,0,0-4-4.07c-.87-.31-.45-1.45-1.18-1.86Z"/><path class="cls-5" d="M525.78,260.68c5.4-2.11,11-3.84,15.52-7.85-1,2.28-3.85,3.25-2.88,6.65,3.5-2.19,5.66-.61,8.22,2.15a6.09,6.09,0,0,0,7.1.34c2.94-2.22,6.46-.76,9.51-1.93.2-.07.75.16.76.3.37,3.29,3.12,2.46,4.87,2.4,2.67-.09.69,2.81,2.51,3.07-2.64-.05-5.11.79-7.73-.22-2.83-1.08-5.44,1.28-8.35,1.27-.76,0-1.72.42-2.77.4-2-.05-4,.15-4.91,2.64a26.91,26.91,0,0,1-2.26,4c-1.68-3.32-2.11-7.34-6.53-7.73-3.71-1-7.42-2.07-11.15-3C526.33,262.8,525.52,262.19,525.78,260.68Z"/><path class="cls-3" d="M654.76,276.87c4.3-.15,8.6-.9,12.9,0-1.53,1.13.64,3.56-1.2,4.23-2.42.89-2.49,3-3.44,4.77a28.41,28.41,0,0,0-2.95,9.92c-.3,2.34-2,1.27-3.22,1.44-1.49.22-1.46-.83-1.51-1.9C655.09,289.16,654.54,283,654.76,276.87Z"/><path class="cls-3" d="M668.47,277.44c.69-1.12.52-3.45,2-3.23,1.82.27.6,2.52,1.09,3.81.22,5.83-.62,11.79,2.16,17.3-.47.91-1.63.64-2.25,1.3a9,9,0,0,1-4.72,1.18c-5.49-.27-5.55-.21-4.7-5.59.51-3.23,1.72-6.65,3.75-8.77C667.64,281.49,668.64,279.94,668.47,277.44Z"/><path class="cls-6" d="M273.78,264.92a2.88,2.88,0,0,1,2.07,2.66c.34,3.24,2.55,3,4.5,2.3a13,13,0,0,1,7.79-.48c2,.43,4.35-.32,6.22-.95,7-2.39,14.19-2.78,21.44-2.43,3.12.16,3.63-.33,3.29-3.72-.61-6.31-.09-12.73,0-19.1l.92,0c.07,5.87,0,11.75.26,17.62.11,2.77-.14,5.83,3.15,7.41a1.94,1.94,0,0,1,.72,2.66c-1.51,2.66-1.9,5.82-4,8.27-1,1.14-2.76,2.92.35,4a1.08,1.08,0,0,1,.55,1.28c-1.79,5.95-.34,12.09-1.05,18.11l-.86,0c-.15-5.45-.69-10.92.34-16.35.19-1,.44-2-1-2.68s-1.05-2.17-.41-3.36c1.37-2.59,3-5,4-7.82s-.21-5.21-3.24-5.28c-8-.19-16-.31-23.84,2.36-2.62.89-5.77,1.64-8.87.68a7.28,7.28,0,0,0-4.94.6c-3.54,1.47-5.46.56-6.45-3a4.52,4.52,0,0,0-2.08-2.42Z"/><path class="cls-2" d="M649.85,314.56c-1,.8-1.16,2.17-2.16,3.05-1.18,1-1.81,2.34.48,3,.66.19,1.06.61.82,1.31-1.16,3.53-2.39,7.08-5.24,9.63-1.26,1.13-2.52-.15-3.64-.79a3.8,3.8,0,0,1-2.06-2.43c.49-2.37,2.91-2.82,4.42-4,1.8-1.42,1.93-2.2.43-3.63-2.6-2.48-2.12-4.2,0-7.48.69-1.1,1.23-1.16,2.37-.56,1.46.77,2.7,2.22,4.61,1.94Z"/><path class="cls-4" d="M655.28,304.09c-.55-.18-1.32,0-1.45-.86a6.45,6.45,0,0,0,.6-1.67c.22-2.62,1.59-3.45,4.14-3.14s5.34.35,8,.4c1.73,0,3.62.55,5-1.08.51-.25,1-.73,1.49.07a1.52,1.52,0,0,1-.28,1.89c-1.18,1.39-2.83,2.71.58,3.68,1.76.5,1.55,3.66-.1,4.64-2.15,1.29-2.83-1.36-2.95-1.85-.56-2.41-2.11-1.92-3.67-1.78C662.88,303.71,659.07,304.08,655.28,304.09Z"/><path class="cls-6" d="M327.64,247.45A69.46,69.46,0,0,0,336,257.63c.87.86,2.12,2,2.75,1.95,3.06-.1,2.17,1.79,1.61,3.06-1,2.21.5,4.65-.86,6.78-.14.2.1.88.36,1.06a1.18,1.18,0,0,0,1.58-.4c1.87-2.22,2.89-.88,3.61.89,1.07,2.65,2.85,4.8,4.37,7.12,2,3.13,3.78,2.38,6.39,1.83,2.28-.49,4.68.3,6.86-1.69.48-.45,2.27-.08,2.34-1.84.49,1.71-.45,3-1.21,4.42-3,.74-6.09,0-9.06,1-1.14.38-4.54-2-5.8-2.58-3.88-1.69-3.67-5.87-5.75-8.63-.71-.09-.91.61-1.35.92a2.24,2.24,0,0,1-2.74.25c-1-.63-1.06-1.43-1.07-2.51a9.29,9.29,0,0,1,.56-2.82c1.9-5.74-3.17-7.95-6-10.43s-4-5.71-5.92-8.58Z"/><path class="cls-6" d="M671.58,297.74c-1.38,1.63-3.27,1.11-5,1.08-2.67-.05-5.36-.09-8-.4s-3.92.52-4.14,3.14a6.45,6.45,0,0,1-.6,1.67h-1A56.77,56.77,0,0,0,654.25,293c0-1.86-1.23-3-1.19-4.94.07-3.71.83-7.43.34-11.16l1.36,0c-.22,6.16.33,12.29.58,18.44,0,1.07,0,2.12,1.51,1.9,1.18-.17,2.92.9,3.22-1.44a28.41,28.41,0,0,1,2.95-9.92c1-1.77,1-3.88,3.44-4.77,1.84-.67-.33-3.1,1.2-4.23l.81.59c.17,2.5-.83,4.05-2.7,6-2,2.12-3.24,5.54-3.75,8.77-.85,5.38-.79,5.32,4.7,5.59a9,9,0,0,0,4.72-1.18C671.49,297,671.53,297.37,671.58,297.74Z"/><path class="cls-4" d="M653.39,309c.14-4.2.13-4.12,4.33-3.75a35.11,35.11,0,0,0,5.89-.08c1.85-.16,2.23.77,2.07,2.29s.61,3.25-1.93,3.59c-2.93.38-6-.21-8.76,1.61-.78.52-1.55.1-1.6-1C653.36,310.81,653.39,309.92,653.39,309Z"/><path class="cls-6" d="M339.71,362.07c-1.33-.23-2.08,0-1.76,1.66.95,5-.14,10.54,4,14.72.92.93-.07,1.68-.77,2.17-3,2.15-1.62,5.88-3.13,8.57-.25.45.07,1.05.67,1.47,1.73,1.22,1.09,2.45-.16,3.6l-.72-.6c.23-.65,1.24-1.36-.05-1.92a1.91,1.91,0,0,1-1-2.51c1-3.08.5-6.66,3.14-9.13.73-.68.53-1,.16-1.9-3.6-8.61-11.37-13.52-17.41-20-.5-.53-1.46-.74-1.41-1.74,1.56-.25,2.32.94,3.23,1.81,4.15,4,8.28,8,12.88,12.39-.25-2.76-.5-4.86-.62-7-.18-3.08.6-3.56,3.63-2.37C340.15,361.6,339.93,361.83,339.71,362.07Z"/><path class="cls-2" d="M624.53,338.59a10.85,10.85,0,0,0,2.08-2.42c.72-1.47.76-2.6-1.13-2.66-2.36-.07-2.09-3.25-4.29-3.35-1-1.94-.94-3,1.8-2.85,3.72.22,7.47.06,11.54.06-2.12,1.19-3.39,2.87-5.36,3.72-.95.42.68,1.8.31,3-.64,1.95-.24,4.09-1.25,6.06C627.32,339.31,625.89,339.05,624.53,338.59Z"/><path class="cls-6" d="M297.28,305.67c0,8.47.06,16.95,0,25.43a5.1,5.1,0,0,0,2.08,4.3q7.56,6.56,15,13.32c.67.61,2.08,1,1.46,2.49-5.81-4.38-10.77-9.75-16.48-14.23-2.54-2-3.39-4.15-3.29-7.38.26-8,0-16,0-24Z"/><path class="cls-6" d="M649.84,314.59c-1.91.28-3.15-1.17-4.61-1.94-1.14-.6-1.68-.54-2.37.56-2.08,3.28-2.56,5,0,7.48,1.5,1.43,1.37,2.21-.43,3.63-1.51,1.18-3.93,1.63-4.42,4l-.95-1.23-.43-.55-.76-.64c1.52-1.41,4.1-.32,5.44-2.46.59-.93,1.15-1.25.22-2.34-2.66-3.13-2.62-4.69-.22-8,.71-.95,1.49-1.83,0-2.94-1.28-.95-.84-3-2.21-4.06.48-.21.47-.66.51-1.08.48.36,1.25.63,1.38,1.09,1.23,4.25,5.08,5.44,8.33,7.35C649.68,313.72,650.32,313.92,649.84,314.59Z"/><path class="cls-6" d="M579.06,375.8a6.59,6.59,0,0,1,4,4.07c.59,1.58,2.14,2.59,3.09,3.92,2.51,3.52,6.13,6.23,7.23,10.87.38,1.6,2.06,3,1.95,5.06,0,.42,0,.84,0,1.26a1.31,1.31,0,0,1-1.27-1.07c-1.45-6.41-5.65-11.18-9.69-16a11,11,0,0,1-1.65-2.07,13.2,13.2,0,0,0-4.73-5.5C578.37,376.29,578.82,376.27,579.06,375.8Z"/><path class="cls-2" d="M640.26,340a11.57,11.57,0,0,1-1.79,2.34c-.83.67-2,1.32-2.48-.48s-1.62-2.34-3.69-2.12c2.65-2.44.45-4.94.8-7.32.18-1.24.63-1.54,1.3-1.7,1.14-.26.8.85.93,1.42a9,9,0,0,1,.14,1.79C635.69,338.92,635.69,338.92,640.26,340Z"/><path class="cls-6" d="M673.69,295.32c-2.78-5.51-1.94-11.47-2.16-17.3l.89,0c.27,3.74.62,7.47.78,11.21a6.88,6.88,0,0,0,1.23,4.13C674.18,294,673.94,294.65,673.69,295.32Z"/><path class="cls-6" d="M600,326l35.42.2c-.65.66-1.49.46-2.26.46q-15.68,0-31.36,0C601.25,326.61,600.25,327.27,600,326Z"/><path class="cls-6" d="M525.78,260.68c-.26,1.51.55,2.12,1.91,2.47,3.73,1,7.44,2,11.15,3,0,.32,0,.64.07,1-4.48-.07-8.42-2.48-12.81-3-1.09-.13-1.17-1.48-1.93-2.09Z"/><path class="cls-3" d="M636.42,330c2.34,1.58,1.39,4.9,3.5,6.61-.54.58,0,1.93-1.38,1.91-1.08,0-2,0-1.93-1.52s-.11-2.78-.18-4.17a1,1,0,0,0-.11-1.18v-1.53Z"/><path class="cls-6" d="M379.92,315.26c-4.09,0-8.19,0-12.28,0-.88,0-2,.59-2.64-.63l.66-1.34c.66,1.11,1.76.71,2.69.73,3.88.08,7.75.1,11.63.15Z"/><path class="cls-6" d="M434,342.67q-.17-12-.34-24a8.74,8.74,0,0,0-.27-3.52c1.08-.06.64.8.65,1.23C434,325.14,434,333.91,434,342.67Z"/><path class="cls-6" d="M613.09,382.39c-1.42-1.39-2.91-2.7-4.22-4.19-1.89-2.16-4-3.84-7-3.61,1.38-.44,3,.48,4.25-.64a52,52,0,0,1,8,8.27Z"/><path class="cls-5" d="M651.4,317.51c2.19-2,4.84-1.92,7.48-2C656.65,317.18,654,317.2,651.4,317.51Z"/><path class="cls-2" d="M667.06,310.82c-.67-1.53-.28-2.8-.4-4-.07-.78.14-1.35,1.07-1.4a1.2,1.2,0,0,1,1.38,1.47A5.43,5.43,0,0,1,667.06,310.82Z"/><path class="cls-2" d="M609.07,330.14c-1.37.37-1.4-.49-1.35-1.46,0-.73.15-1.58,1.08-1.32s2.46-1,2.86.95a2.68,2.68,0,0,0,.35.67l.06,0a2.19,2.19,0,0,0-3,1.23Z"/><path class="cls-5" d="M619.93,330.17c-.14.73-.25,1.41-1.24.7s-1.58-1.72-2.81-1.93C618,327.7,618.38,327.81,619.93,330.17Z"/><path class="cls-6" d="M655.28,304.09c3.79,0,7.6-.38,11.37.3C662.86,304.37,659.05,304.88,655.28,304.09Z"/><path class="cls-6" d="M384.77,315l-3.55.25-.09-1.14,3.63-.07C384.76,314.4,384.77,314.72,384.77,315Z"/><path class="cls-6" d="M414.67,238.05a25.37,25.37,0,0,1-7.07.06A18.09,18.09,0,0,1,414.67,238.05Z"/><path class="cls-6" d="M318.14,238.11a19.35,19.35,0,0,1-5.32,0A9,9,0,0,1,318.14,238.11Z"/><path class="cls-6" d="M599.79,306.23a15.56,15.56,0,0,1,.05,5.36A8.14,8.14,0,0,1,599.79,306.23Z"/><path class="cls-6" d="M307.34,238.09a9.94,9.94,0,0,1-4.1,0A5.9,5.9,0,0,1,307.34,238.09Z"/><path class="cls-6" d="M342.71,360.76a1.9,1.9,0,0,1-1.16,2.14c0-.43,0-.85,0-1.27l.39-1.44Z"/><path class="cls-5" d="M636.42,330l-.1.12V330c-.1-1-.58-2,.3-2.83l0,0Z"/><path class="cls-6" d="M653.43,276.88l-3-.25C651.5,276.08,652.52,275.76,653.43,276.88Z"/><path class="cls-6" d="M599.93,320v1.82A1.13,1.13,0,0,1,599.93,320Z"/><path class="cls-6" d="M265.39,305.57c-.15.38-.29.75-.43,1.13C264.84,306.22,264.16,305.54,265.39,305.57Z"/><path class="cls-5" d="M636.32,331.68a1,1,0,0,1,.11,1.18A.9.9,0,0,1,636.32,331.68Z"/><path class="cls-6" d="M276.77,239.18l1.1.5C277.4,239.73,277,239.68,276.77,239.18Z"/><path class="cls-6" d="M404.52,238.11h-1.14A.72.72,0,0,1,404.52,238.11Z"/><path class="cls-6" d="M549.2,308.65a1.14,1.14,0,0,1-1.33.44A1.2,1.2,0,0,1,549.2,308.65Z"/><path class="cls-6" d="M474.72,352.64l.6,0C475.13,352.88,474.93,352.89,474.72,352.64Z"/><path class="cls-6" d="M643.28,276.65l-.65,0C642.84,276.36,643.05,276.34,643.28,276.65Z"/><path class="cls-6" d="M672.83,273.92l-.69.33C672.16,273.69,672.45,273.72,672.83,273.92Z"/><path class="cls-6" d="M418.33,238.43c-.19-.1-.38-.2-.56-.31C418.12,237.92,418.27,238.09,418.33,238.43Z"/><path class="cls-6" d="M612.89,383.56l.4-.55Z"/><path class="cls-6" d="M341.91,306.16c-.1-.19-.2-.38-.29-.57C341.92,305.67,342.07,305.83,341.91,306.16Z"/><path class="cls-5" d="M636.67,326.54l.43.55a3.48,3.48,0,0,1-.44.1l0,0C636.63,327,636.65,326.75,636.67,326.54Z"/><path class="cls-2" d="M470.5,439.94a.77.77,0,0,1,.23.06s0,.12,0,.18l-.18-.28Z"/><path class="cls-6" d="M366.09,275.79c9-.42,18-.2,27.07-.11,0,.31,0,.62,0,.93l-27,.19Z"/><path class="cls-7" d="M393.18,276.61c0-.31,0-.62,0-.93,7.33,0,14.66-.06,22-.11a7,7,0,0,0,3.22-.28c.89,2.1-.93,1.35-1.6,1.36C408.91,276.68,401.05,276.63,393.18,276.61Z"/><path class="cls-7" d="M366.09,275.79l.07,1c-.9,6.75-.22,13.54-.37,20.3-.12,5.38-.09,10.77-.13,16.15l-.66,1.34c-.53-10.76-.12-21.53-.08-32.29,0-.08.07-.16.05-.23a2.5,2.5,0,0,0-.19-.41l-1-.85c.76-1.38,1.7-2.71,1.21-4.42C365.16,275.81,365.59,275.73,366.09,275.79Z"/><path class="cls-7" d="M419.59,294.64c0,.49,0,1,0,1.48,0,1.06,0,2.13,0,3.19-.66.46-1.17.28-1.18-.49a59.18,59.18,0,0,1,.33-8.4C419.93,291.67,419.3,293.25,419.59,294.64Z"/><path class="cls-7" d="M419.33,283.76c-.24.41-.82.5-.84.14q-.15-3.18,0-6.36c0-.36.59-.27.83.13A10.88,10.88,0,0,0,419.33,283.76Z"/><path class="cls-6" d="M419.33,283.76a10.88,10.88,0,0,1,0-6.09A12.31,12.31,0,0,1,419.33,283.76Z"/><path class="cls-7" d="M357.74,305c1.51-.75,2.34-.93,3.18,0C360,305.84,359.16,305.53,357.74,305Z"/><path class="cls-6" d="M364.78,281.66a2.5,2.5,0,0,1,.19.41c0,.07,0,.15-.05.23a2.44,2.44,0,0,1-.18-.41A.49.49,0,0,1,364.78,281.66Z"/><path class="cls-6" d="M315.75,351.22c2.23-.19,3.05,1.25,3.58,3A5.49,5.49,0,0,1,315.75,351.22Z"/><path class="cls-7" d="M341.54,361.63c0,.42,0,.84,0,1.27-.94.45-1.42-.12-1.84-.83.22-.24.44-.47.65-.71Z"/><path class="cls-7" d="M606.08,374c-1.28,1.12-2.87.2-4.25.64-2-.44-5.11,1.69-5.35-2.48C599.34,374.47,603,372.74,606.08,374Z"/><path class="cls-7" d="M609,330.17a2.19,2.19,0,0,1,3-1.23C611.46,330.34,610.28,330.33,609,330.17Z"/><path class="cls-7" d="M597.61,325.36c-.2-.42-.39-.83-.59-1.24.09-.43.18-1.27.66-.92C598.4,323.73,597.77,324.63,597.61,325.36Z"/><path class="cls-2" d="M497.29,291.18c5.5,0,11,.08,16.48,0,2.53-.06,4,.29,3.49,3.44-.29,1.81.44,3.39,2.48,4.6s3.47,3.4,4.88,5.37c.84,1.18-1.21,4.27-3.11,4.71-2.68.62-4.91,1-3,4.78,1,2-2.25,4.57-4.55,3.8-1.66-.56-3.36-.24-5-.24-7.89,0-15.78,0-23.67.11-1.91,0-2.77-.36-2.79-2.64,0-4-1.84-7.55-3.17-11.25a24.11,24.11,0,0,1-1.76-8.95c.08-4.63,2.35-3.65,4.79-3.67,5,0,10,0,15,0Z"/><path class="cls-5" d="M533.89,356.83a9.72,9.72,0,0,0,.25-2.33c-.39-2.81.29-3.77,2.93-1.94.5.35,1.65.26,1.53-.07-1.13-3.12,3.09-2.92,3.31-5.65.16-1.86,3.26-1.85,5.33-1.65,2.4.25,4.76.37,6.77-1.36.21-.18.61-.47.73-.39,3.25,2,4.1-1.24,5.44-2.71,1.66-1.83,2.87-4,5.7-4.14.76,0,1.07-.67,1.15-1.5.23-2.39,1.87-1.64,2.65-.74,2.85,3.34,6.37,3.65,10.39,3.15a2.56,2.56,0,0,1,2.73,2.73c-.32,2.93,1.29,4.95,2.84,6.89,1.06,1.32.72,1.93-.39,2.45-2,1-3.41,2.59-5,4.11a11.12,11.12,0,0,1-9.13,2.8c-8.16-.81-16.36-.12-24.5-.67C542.29,355.52,538.44,358.42,533.89,356.83Z"/><path class="cls-7" d="M528.67,416c-2.07-1.14-1-2.91-.8-4.67-4,0-7.84-.12-11.7.05-2.33.1-2.84-1.06-2.44-2.89s.74-4,2-5.55c3-3.49,2.27-7.1.79-10.83a3.88,3.88,0,0,0,.73-3.41c-1.27-4,.6-7.1,2.93-10a5.25,5.25,0,0,0,1.48-2.83,1.85,1.85,0,0,1,2.22-1.87,13.53,13.53,0,0,1-2.93,6c-1.88,2.13-2.14,4.76-2.16,7.68A33.5,33.5,0,0,0,520,398.09c.58,1.87-1.54,3.56-2.56,5.15s-1.31,3.27-2,4.89c-.76,1.79,0,2.39,1.71,2.4,3,0,6,.08,9,0,2.06-.07,3.59,0,2.65,2.8A8.85,8.85,0,0,0,528.67,416Z"/><path class="cls-7" d="M545.79,412.68c-1.11.32-1.51-.24-1.4-1.23s.93-1.44,1.93-1.44c3,0,6-.06,9,0,2.77.06,5.55-.33,8.62.45-.9-5,.16-9.72.89-14.43,1.38,1,1.54,2.1.88,3.63-1.75,4.1-1.17,8.18.24,12.26.36,1,1.05,1,1.83,1.07l7.69.65,0,1-5.45-.32-.72-.08c-2,0-4.29.54-4.84-2.49-.11-.62-1-.53-1.57-.53l-15.83,0C546,411.19,545.2,411.31,545.79,412.68Z"/><path class="cls-6" d="M575.47,414.64l0-1c1.4.2,3.13-.85,4.07,1.08Z"/><path class="cls-7" d="M579.06,375.8c-.24.47-.69.49-1.13.52-1-.77-1.34-1.56,0-2.38C578.61,374.35,578.19,375.49,579.06,375.8Z"/><path class="cls-6" d="M569.3,414.24l.72.08C569.75,414.59,569.52,414.5,569.3,414.24Z"/><path class="cls-8" d="M290.6,108V77.15H211.2V108h17.65V161H211.2v30.88h79.4V161H273V108ZM273,165.37h13.23v22H215.61v-22h13.24a4.42,4.42,0,0,0,4.41-4.41V108a4.41,4.41,0,0,0-4.41-4.41H215.61V81.56h70.58v22.06H273a4.41,4.41,0,0,0-4.42,4.41V161a4.42,4.42,0,0,0,4.42,4.41"/><path class="cls-9" d="M273,103.62h13.23V81.56H215.61v22.06h13.24a4.41,4.41,0,0,1,4.41,4.41V161a4.42,4.42,0,0,1-4.41,4.41H215.61v22h70.58v-22H273a4.42,4.42,0,0,1-4.42-4.41V108a4.41,4.41,0,0,1,4.42-4.41"/><path class="cls-10" d="M337.68,162.64,346.56,152c4.87,4.23,11.18,7.15,16.81,7.15,6.46,0,9.62-2.55,9.62-6.61,0-4.31-3.89-5.69-9.87-8.15l-8.89-3.79c-7.09-2.88-13.81-8.71-13.81-18.65,0-11.34,10.13-20.4,24.37-20.4a31.68,31.68,0,0,1,22,9L379,120.3c-4.51-3.46-8.8-5.36-14.21-5.36s-8.73,2.22-8.73,6.14c0,4.19,4.48,5.72,10.45,8.1l8.72,3.53c8.36,3.38,13.58,8.94,13.58,18.61,0,11.37-9.48,21.21-25.78,21.21A37.69,37.69,0,0,1,337.68,162.64Z"/><path class="cls-10" d="M411.77,115.82H392.93v-13h53.15v13H427.24v55.45H411.77Z"/><path class="cls-10" d="M465.29,102.84h18.52l21.49,68.43H488.92L480,136.62c-1.9-6.85-3.73-14.94-5.56-22.08H474c-1.65,7.23-3.48,15.23-5.38,22.08l-9,34.65H443.8ZM458,143H490.9v12H458Z"/><path class="cls-10" d="M518.45,115.82H499.61v-13h53.15v13H533.92v55.45H518.45Z"/><path class="cls-10" d="M586.22,132.72c0-4.24.38-10.7.59-14.94h-.42c-1.68,3.77-3.57,7.46-5.46,11.27l-8.75,14.55h36.13v11.77H557.39V144.69l24.34-40.09h18.88v66.67H586.22Z"/><path class="cls-10" d="M641.66,132.72c0-4.24.38-10.7.59-14.94h-.42c-1.68,3.77-3.57,7.46-5.46,11.27l-8.75,14.55h36.13v11.77H612.83V144.69l24.34-40.09h18.88v66.67H641.66Z"/><path class="cls-10" d="M700.75,117.57H670.86v-13h46.41v9.5c-15.47,18.6-17.6,31.18-18.82,57.17H682.94C684.16,149.09,688.14,135,700.75,117.57Z"/></g></g></svg>